# xmcd
#
# Track frame offsets: 
#        150
#        13630
#        23982
#        37525
#        52482
#        64537
#        76472
#        87857
#        98152
#        110600
#        122790
#        138215
#        150492
#        165875
#        183812
#        197997
#
# Disc length: 2794 seconds
#
# Revision: 3
# Processed by: cddbd v1.5.2PL0 Copyright (c) Steve Scherf et al.
# Submitted via: ExactAudioCopyFreeDBPlugin 1.0
#
DISCID=c20ae810
DTITLE=Various Artist - True Story Of Country [CD 1)
DYEAR=1994
DGENRE=Country
TTITLE0=Lynn Anderson - Rose Garden
TTITLE1=Wanda Jackson - It´s Only Make Believe
TTITLE2=Jimmy Dean - Big Bad John
TTITLE3=Jeannie C. Riley - Harper Valley P.T.A.
TTITLE4=Dave Dudley - Mad
TTITLE5=Del Reeves - Girl On The Billboard
TTITLE6=Kitty Wells - Heartbreak USA
TTITLE7=Faron Young - Hello Walls
TTITLE8=Jack and Misty - Tennessee Birdwalk
TTITLE9=La Costa Tucker - He Took Me For A Ride
TTITLE10=Red Simpson - I´m A Truck
TTITLE11=Johnny Russel - Rednecks, White Socks And Blue Ribbon Beer
TTITLE12=Melba Montgomery - No Charge
TTITLE13=David Houston - Nashville
TTITLE14=Margo Smith - It Only Hurts For A Little While
TTITLE15=Sammi Smith - Help Me Make It Through The Night
EXTD=The True Story Of Country - CD 3/3
EXTT0=
EXTT1=
EXTT2=
EXTT3=
EXTT4=
EXTT5=
EXTT6=
EXTT7=
EXTT8=
EXTT9=
EXTT10=
EXTT11=
EXTT12=
EXTT13=
EXTT14=
EXTT15=
PLAYORDER=
